<?xml version="1.0" standalone="no"?><!DOCTYPE svg PUBLIC "-//W3C//DTD SVG 1.1//EN" "http://www.w3.org/Graphics/SVG/1.1/DTD/svg11.dtd"><svg t="1603525340005" class="icon" viewBox="0 0 1024 1024" version="1.1" xmlns="http://www.w3.org/2000/svg" p-id="5694" xmlns:xlink="http://www.w3.org/1999/xlink" width="32" height="32"><defs><style type="text/css"></style></defs><path d="M734.7 862H289.3c-49.6 0-90-40.4-90-90V252c0-49.6 40.4-90 90-90h445.4c49.6 0 90 40.4 90 90v520c0 49.6-40.4 90-90 90zM289.3 222c-16.5 0-30 13.5-30 30v520c0 16.5 13.5 30 30 30h445.4c16.5 0 30-13.5 30-30V252c0-16.5-13.5-30-30-30H289.3z" p-id="5695"></path><path d="M706 373H314c-16.6 0-30-13.4-30-30s13.4-30 30-30h392c16.6 0 30 13.4 30 30s-13.4 30-30 30zM706 500H314c-16.6 0-30-13.4-30-30s13.4-30 30-30h392c16.6 0 30 13.4 30 30s-13.4 30-30 30zM547 629H314c-16.6 0-30-13.4-30-30s13.4-30 30-30h233c16.6 0 30 13.4 30 30s-13.4 30-30 30z" p-id="5696"></path></svg>