<?xml version="1.0" standalone="no"?><!DOCTYPE svg PUBLIC "-//W3C//DTD SVG 1.1//EN" "http://www.w3.org/Graphics/SVG/1.1/DTD/svg11.dtd"><svg t="1603525132007" class="icon" viewBox="0 0 1024 1024" version="1.1" xmlns="http://www.w3.org/2000/svg" p-id="3076" width="32" height="32" xmlns:xlink="http://www.w3.org/1999/xlink"><defs><style type="text/css"></style></defs><path d="M19.2 768c-12.8 0-19.2-6.4-19.2-12.8v-96C0 505.6 115.2 384 268.8 384c12.8 0 19.2 6.4 19.2 19.2s-12.8 12.8-19.2 12.8c-128 0-230.4 108.8-230.4 236.8v96c0 12.8-12.8 19.2-19.2 19.2zM1004.8 768c-12.8 0-19.2-6.4-19.2-19.2V268.8c0-57.6-51.2-108.8-108.8-108.8h-384c-57.6 0-108.8 51.2-108.8 108.8v467.2c0 12.8-6.4 19.2-19.2 19.2s-19.2-6.4-19.2-19.2V268.8C345.6 192 409.6 128 492.8 128h384C960 128 1024 192 1024 268.8v480c0 12.8-6.4 19.2-19.2 19.2zM192 896c-64 0-115.2-51.2-115.2-115.2S128 672 192 672s115.2 51.2 115.2 115.2S256 896 192 896z m0-192c-44.8 0-76.8 32-76.8 76.8s32 76.8 76.8 76.8 76.8-32 76.8-76.8S236.8 704 192 704z" fill="" p-id="3077"></path><path d="M768 896c-64 0-115.2-51.2-115.2-115.2s51.2-115.2 115.2-115.2 115.2 51.2 115.2 115.2S832 896 768 896z m0-192c-44.8 0-76.8 32-76.8 76.8s32 76.8 76.8 76.8 76.8-32 76.8-76.8S812.8 704 768 704zM102.4 768H25.6c-12.8 0-19.2-6.4-19.2-19.2s6.4-19.2 19.2-19.2h76.8c12.8 0 19.2 6.4 19.2 19.2s-6.4 19.2-19.2 19.2z" fill="" p-id="3078"></path><path d="M288 736h384v38.4h-384zM1004.8 768h-128c-12.8 0-19.2-6.4-19.2-19.2s6.4-19.2 19.2-19.2h128c12.8 0 19.2 6.4 19.2 19.2s-6.4 19.2-19.2 19.2z" fill="" p-id="3079"></path></svg>